<?xml version="1.0" standalone="no"?>
<!DOCTYPE svg PUBLIC "-//W3C//DTD SVG 20010904//EN"
 "http://www.w3.org/TR/2001/REC-SVG-20010904/DTD/svg10.dtd">
<svg version="1.0" xmlns="http://www.w3.org/2000/svg"
 width="1178.000000pt" height="662.000000pt" viewBox="0 0 1178.000000 662.000000"
 preserveAspectRatio="xMidYMid meet">
<metadata>
Created by potrace 1.16, written by Peter Selinger 2001-2019
</metadata>
<g transform="translate(0.000000,662.000000) scale(0.100000,-0.100000)"
fill="#000000" stroke="none">
<path d="M5788 6225 c-2 -2 -34 -6 -72 -9 -39 -3 -72 -9 -75 -14 -3 -4 -22 -8
-41 -10 -19 -1 -36 -7 -38 -11 -2 -5 -11 -7 -21 -4 -10 2 -25 -3 -34 -11 -9
-9 -20 -16 -24 -15 -24 4 -43 -2 -37 -12 4 -7 1 -10 -7 -7 -8 3 -26 -4 -41
-14 -16 -11 -28 -16 -28 -11 0 4 -7 -3 -16 -15 -8 -12 -22 -22 -30 -22 -24 0
-75 -30 -69 -40 4 -6 0 -10 -7 -10 -12 0 -55 -41 -50 -47 1 -2 -1 -4 -5 -5 -5
-1 -23 -17 -40 -35 -18 -18 -33 -30 -33 -26 0 29 -138 -173 -184 -270 -16 -32
-29 -69 -30 -83 0 -13 -4 -24 -8 -24 -3 0 -9 -12 -12 -27 -4 -16 -9 -41 -13
-58 -4 -16 -7 -42 -7 -57 -1 -16 -5 -28 -9 -28 -4 0 -6 -19 -3 -42 3 -24 6
-74 7 -113 1 -84 16 -142 41 -159 10 -7 16 -15 14 -17 -7 -7 56 -47 79 -51 11
-2 26 -9 34 -16 12 -11 15 -11 23 0 7 10 11 10 22 -4 7 -10 16 -15 19 -11 4 3
7 0 7 -8 0 -11 2 -11 10 1 6 10 10 11 10 3 0 -13 50 -43 70 -43 6 0 8 5 4 11
-4 7 -1 10 7 7 8 -3 13 -11 11 -18 -2 -7 5 -9 18 -5 14 4 20 2 18 -6 -2 -7 2
-13 9 -14 6 0 15 -3 19 -7 4 -5 12 -8 18 -8 6 0 4 5 -4 10 -13 8 -12 10 3 10
10 0 17 -7 17 -17 0 -15 2 -16 10 -3 7 11 10 11 10 2 0 -7 5 -10 10 -7 6 4 9
1 8 -6 -4 -18 -32 -47 -40 -42 -5 2 -8 -2 -8 -10 0 -8 -11 -22 -25 -31 -14 -9
-23 -21 -20 -26 3 -5 -4 -11 -15 -15 -11 -3 -20 -13 -20 -21 0 -8 -3 -14 -7
-14 -18 0 -52 -93 -59 -158 -4 -33 0 -49 17 -70 11 -15 24 -26 27 -24 4 1 7
-2 7 -7 0 -13 58 -62 69 -58 6 2 18 -5 29 -16 10 -10 25 -16 32 -13 8 3 17 1
20 -5 4 -5 20 -16 37 -25 23 -12 28 -12 23 -2 -3 7 0 5 8 -4 15 -19 32 -25 22
-8 -3 6 1 7 9 4 9 -3 13 -10 10 -15 -5 -8 12 -13 43 -12 7 1 10 -4 6 -10 -4
-6 0 -8 10 -4 9 3 19 1 23 -4 3 -6 17 -9 30 -6 13 2 21 1 19 -4 -3 -4 3 -9 12
-11 10 -3 -16 -12 -57 -22 -224 -51 -475 -185 -684 -365 -134 -115 -282 -292
-337 -405 -22 -44 -56 -73 -69 -57 -6 7 -510 8 -510 1 0 -3 -25 -3 -55 -2 -41
3 -59 0 -71 -13 -9 -9 -14 -18 -11 -21 3 -3 82 0 176 7 149 10 484 9 496 -2 2
-2 -7 -42 -21 -88 -41 -141 -31 -333 26 -484 29 -77 40 -79 24 -4 -31 145 -5
377 42 377 16 0 24 -24 24 -75 0 -77 42 -236 82 -307 25 -44 75 -73 110 -65
32 8 75 51 99 99 17 33 83 132 167 251 42 59 194 209 223 219 18 6 34 6 47 -1
19 -10 19 -12 -6 -63 -14 -29 -27 -59 -28 -66 -1 -8 -6 -21 -10 -30 -4 -9 -8
-19 -9 -22 -1 -3 -14 -32 -29 -65 -43 -92 -115 -265 -111 -265 2 0 20 33 40
73 93 181 230 397 254 397 15 0 191 -44 356 -89 111 -30 234 -72 240 -81 10
-15 -195 -183 -360 -294 -120 -81 -316 -179 -401 -201 -34 -8 -87 -15 -118
-15 -66 0 -85 -21 -47 -52 35 -27 134 -24 229 8 94 31 280 124 387 192 156
100 413 290 518 384 27 24 62 51 79 60 17 9 43 29 58 43 14 14 36 25 49 25
l22 0 -20 -29 c-12 -16 -21 -34 -21 -40 0 -15 -32 -61 -92 -132 -44 -52 -46
-57 -24 -56 13 0 46 -12 75 -26 48 -25 88 -27 75 -5 -3 5 -12 7 -19 4 -7 -2
-16 2 -19 10 -3 9 -10 12 -16 9 -5 -3 -10 0 -10 7 0 11 -2 10 -9 0 -6 -11 -10
-10 -15 3 -4 11 -12 15 -22 11 -13 -5 -14 -4 -6 7 7 8 8 18 4 22 -4 5 -2 5 4
2 14 -8 77 56 67 68 -5 4 -3 5 3 2 7 -4 33 18 60 51 27 31 51 59 54 62 14 11
89 119 125 180 39 64 48 82 99 189 53 112 86 269 86 409 0 89 -3 110 -25 156
-31 66 -95 106 -171 107 -46 1 -47 1 -19 11 17 5 37 10 45 10 8 0 20 5 26 10
6 4 18 6 26 3 8 -3 31 1 51 10 20 8 40 15 45 15 11 0 29 -81 31 -140 1 -24 6
-47 12 -50 5 -4 7 -14 3 -23 -3 -9 -2 -17 2 -17 5 0 7 -23 5 -51 -2 -36 0 -49
8 -45 6 4 11 0 11 -8 0 -9 -5 -16 -10 -16 -7 0 -7 -6 0 -19 5 -11 10 -31 10
-45 0 -13 6 -27 13 -29 6 -3 8 -6 2 -6 -10 -1 -12 -61 -3 -77 5 -8 13 -88 22
-214 l4 -46 -63 -33 c-77 -39 -147 -112 -183 -189 -24 -50 -27 -69 -27 -162 0
-123 17 -168 90 -235 48 -45 105 -81 105 -67 0 5 -15 17 -34 27 -19 11 -37 26
-41 34 -3 9 -13 30 -22 46 -9 17 -19 58 -21 93 -4 56 -1 70 27 126 28 55 97
126 122 126 4 0 5 -17 2 -37 -24 -172 -19 -236 28 -331 32 -65 75 -106 173
-164 52 -31 86 -79 87 -123 l1 -30 19 40 c41 88 10 159 -91 210 -26 13 -61 36
-79 50 l-31 27 0 174 c0 193 0 191 69 283 62 82 52 131 -26 131 -54 0 -55 5
-73 210 -11 122 -12 128 -35 290 -17 119 -43 269 -50 288 -6 15 -87 9 -170
-13 -33 -9 -77 -19 -97 -22 -21 -3 -38 -8 -38 -12 0 -4 -17 -8 -37 -9 -73 -4
-196 -23 -272 -42 -108 -27 -263 -17 -401 26 -25 7 -61 15 -80 17 -67 6 -257
71 -365 125 -123 61 -165 105 -165 173 0 50 56 150 127 228 36 39 63 77 60 84
-4 11 -83 45 -257 108 -151 56 -199 93 -219 166 -12 45 -16 235 -6 278 67 284
236 523 470 662 175 104 304 135 559 132 273 -2 568 -52 805 -135 116 -41 141
-45 141 -24 0 11 -60 31 -71 24 -5 -3 -9 -1 -9 3 0 5 -20 16 -45 25 -31 12
-45 13 -45 6 0 -7 -6 -3 -14 7 -8 11 -19 16 -30 12 -9 -4 -16 -1 -16 5 0 6 -3
8 -7 5 -3 -4 -11 -3 -17 2 -6 6 -23 11 -36 13 -14 2 -31 7 -38 12 -7 4 -24 5
-38 2 -13 -4 -24 -3 -24 2 0 4 -12 9 -26 10 -15 1 -32 6 -38 11 -10 8 -107 23
-171 25 -16 1 -33 5 -36 9 -3 5 -71 11 -150 13 -79 3 -176 6 -216 8 -39 2 -73
3 -75 1z m137 -2049 c20 5 26 4 21 -5 -4 -7 0 -10 11 -9 10 0 47 0 83 -1 64
-3 64 -5 0 -26 -74 -24 -308 -155 -405 -227 -165 -123 -425 -388 -533 -544
-17 -25 -27 -30 -54 -29 -18 1 -40 5 -48 8 -8 3 -26 6 -40 7 -100 2 -137 6
-133 13 2 4 -19 7 -47 7 l-52 0 28 48 c94 163 249 332 440 482 90 70 261 164
364 200 71 25 196 32 283 16 46 -8 47 -8 47 17 0 14 -5 29 -10 32 -6 4 -7 11
-4 17 4 7 9 6 14 -2 4 -7 17 -9 35 -4z m646 -110 c19 -8 45 -26 59 -41 21 -23
25 -36 25 -88 -1 -51 -8 -76 -39 -140 -35 -71 -163 -258 -233 -338 -78 -92
-128 -144 -236 -251 -117 -116 -119 -117 -143 -102 -13 9 -31 14 -39 10 -9 -3
-13 -2 -10 4 3 6 -2 10 -12 11 -10 0 -27 3 -38 6 -11 2 -28 5 -37 6 -9 1 -14
5 -11 10 3 5 -6 7 -19 5 -14 -1 -33 3 -41 11 -9 7 -24 11 -32 7 -10 -4 -14 -2
-9 5 4 8 -1 9 -15 4 -11 -3 -21 -2 -21 2 0 14 -84 33 -91 21 -4 -5 -9 -2 -13
7 -4 11 -13 15 -26 12 -11 -3 -18 -1 -15 3 5 8 -60 24 -105 24 -14 1 -28 5
-32 11 -14 19 182 262 334 414 185 185 370 309 543 364 128 40 199 47 256 23z
m-1627 -747 c27 -5 64 -9 82 -9 19 0 34 -4 34 -9 0 -6 -26 -52 -59 -103 -73
-117 -160 -280 -201 -378 -18 -41 -36 -79 -40 -84 -13 -13 -77 132 -95 217
-23 106 -17 249 15 331 l22 59 97 -7 c53 -4 118 -12 145 -17z"/>
<path d="M340 3320 l0 -1900 408 2 407 3 -402 2 -403 3 0 1864 c0 1721 1 1865
17 1877 13 12 145 15 747 17 674 3 734 2 764 -14 l32 -17 0 -298 0 -298 -52
-4 -53 -3 58 -2 57 -2 -2 333 -3 332 -787 3 -788 2 0 -1900z"/>
<path d="M2092 4553 l3 -338 2 311 3 311 28 14 c42 22 532 26 592 5 24 -8 45
-14 46 -13 1 1 5 12 8 25 l7 22 -345 0 -346 0 2 -337z"/>
<path d="M3448 4600 c-53 -71 -94 -130 -89 -130 4 0 34 37 66 83 32 45 75 98
95 119 32 32 44 37 102 43 66 7 110 3 161 -17 l27 -10 0 -314 c0 -173 3 -314
8 -314 4 0 5 150 2 332 l-5 333 -135 3 -135 3 -97 -131z"/>
<path d="M1145 4155 l0 -380 382 -3 383 -2 3 -333 2 -332 0 335 0 335 -382 3
-383 2 -3 378 -2 377 0 -380z"/>
<path d="M2097 4063 c-4 -3 -7 -315 -7 -693 0 -639 -1 -688 -17 -708 -56 -68
-84 -112 -77 -123 4 -8 3 -9 -5 -5 -12 8 -32 -33 -23 -48 3 -5 1 -6 -5 -3 -10
6 -50 -70 -45 -85 1 -5 -2 -8 -8 -8 -5 0 -13 -15 -19 -32 -5 -18 -18 -58 -29
-88 -27 -74 -35 -116 -34 -173 0 -30 -3 -45 -10 -41 -7 4 -9 -9 -7 -39 2 -25
1 -43 -2 -41 -4 2 -9 -3 -13 -11 -3 -8 -2 -15 2 -15 4 0 6 -46 5 -102 -1 -68
3 -105 10 -110 8 -5 8 -8 1 -8 -6 0 -9 -13 -6 -30 2 -17 9 -30 14 -30 5 0 7
-4 3 -9 -8 -13 16 -104 29 -113 6 -4 8 -8 3 -8 -4 0 3 -19 15 -43 22 -42 24
-48 27 -68 0 -5 5 -8 10 -5 5 4 12 -6 16 -21 7 -32 116 -179 129 -175 5 2 14
-7 20 -20 6 -12 22 -28 34 -34 13 -6 22 -15 21 -20 -1 -5 9 -15 22 -21 13 -7
20 -13 14 -13 -10 0 44 -52 86 -82 30 -21 62 -46 100 -76 16 -13 33 -21 39
-17 5 3 10 1 10 -5 0 -7 5 -10 12 -8 6 2 26 -11 44 -29 18 -18 38 -33 44 -33
6 0 18 -7 27 -15 8 -9 28 -19 44 -22 16 -3 26 -10 22 -16 -3 -5 0 -8 8 -5 7 2
23 -4 33 -14 11 -10 26 -16 33 -14 7 3 13 1 13 -5 0 -6 7 -9 15 -5 9 3 19 -3
26 -15 6 -11 17 -18 24 -15 7 2 19 -2 26 -10 7 -8 18 -13 26 -10 8 3 11 1 8
-4 -3 -6 1 -10 9 -10 23 0 30 -2 43 -16 7 -7 23 -10 35 -7 19 4 20 3 8 -6 -13
-10 -13 -11 0 -11 8 0 26 -6 40 -13 31 -16 138 -55 165 -60 11 -2 36 -11 55
-20 19 -8 38 -13 42 -11 5 3 8 0 8 -6 0 -7 7 -10 15 -7 8 4 17 2 20 -4 4 -5
11 -6 17 -3 6 4 14 1 18 -6 5 -7 16 -14 27 -15 10 -1 29 -7 42 -14 12 -7 31
-11 42 -8 10 3 19 1 21 -3 2 -5 17 -10 33 -12 17 -2 33 -7 36 -11 3 -5 22 -9
42 -10 20 -1 37 -5 37 -9 0 -9 69 -23 94 -19 10 1 15 -2 12 -8 -4 -6 6 -9 29
-7 19 1 35 -2 35 -6 0 -5 4 -7 9 -4 5 4 11 1 13 -5 2 -7 28 -12 60 -13 31 0
53 -5 50 -10 -3 -5 2 -7 11 -3 9 3 19 2 23 -4 3 -5 13 -9 22 -8 10 1 29 -3 44
-9 15 -6 52 -12 83 -14 30 -2 55 -7 55 -11 0 -5 9 -5 20 -2 11 4 20 2 20 -4 0
-6 4 -11 8 -11 13 0 10 26 -2 28 -6 1 -60 13 -121 27 -60 14 -155 34 -210 44
-55 11 -112 24 -126 29 -14 6 -39 13 -55 16 -58 10 -241 60 -294 80 -19 7 -53
19 -75 26 -75 23 -303 110 -380 145 -16 7 -50 21 -75 31 -25 9 -49 20 -55 25
-5 4 -48 27 -95 51 -419 219 -698 505 -780 799 -67 244 -11 601 134 854 22 39
50 84 63 101 l23 31 2 731 c2 403 3 732 2 732 0 0 -4 -3 -7 -7z"/>
<path d="M3042 3252 c-30 -9 -51 -19 -48 -22 3 -3 -3 -6 -12 -7 -19 -1 -68
-11 -94 -19 -10 -3 -18 -9 -18 -14 0 -5 -7 -6 -17 -3 -10 4 -14 2 -10 -4 4 -6
-3 -8 -20 -5 -18 3 -24 1 -19 -6 5 -8 2 -10 -8 -6 -12 5 -16 -1 -16 -24 l0
-31 53 23 c28 13 106 40 171 60 66 20 122 38 124 41 8 8 -7 35 -20 34 -7 0
-37 -8 -66 -17z"/>
<path d="M9010 3230 c0 -5 5 -10 11 -10 6 0 9 -6 6 -14 -3 -8 1 -17 10 -20 24
-10 12 -105 -27 -204 -51 -132 -211 -312 -379 -427 -73 -50 -76 -53 -63 -70
25 -35 38 -35 89 3 219 161 336 288 425 462 38 75 67 88 105 48 36 -38 37
-110 3 -207 -16 -45 -25 -79 -20 -76 4 2 13 -2 20 -10 21 -25 31 -17 16 13
-13 25 -12 30 5 52 10 14 19 30 19 35 0 6 7 23 15 38 24 46 45 127 45 171 0
92 -81 166 -188 171 -28 2 -53 7 -53 12 -3 29 -39 59 -39 33z"/>
<path d="M10377 3193 c-3 -5 -10 -42 -16 -83 -16 -106 -90 -293 -131 -330 -3
-3 -32 -41 -65 -85 -33 -44 -62 -82 -65 -85 -3 -3 -34 -43 -70 -90 -59 -78
-87 -113 -115 -144 -5 -6 -32 -38 -59 -71 -85 -102 -289 -299 -336 -322 l-45
-23 55 3 c39 2 66 11 90 28 43 30 230 190 249 213 7 8 17 13 22 11 10 -7 75
74 71 87 -4 14 18 39 28 33 5 -3 18 7 30 22 12 16 19 24 17 18 -7 -16 -310
-509 -320 -520 -4 -5 -37 -55 -73 -110 -149 -230 -189 -291 -202 -304 -7 -7
-10 -16 -7 -19 3 -4 9 -2 13 4 66 95 255 382 277 419 16 28 35 56 42 63 7 7
13 19 13 27 0 7 4 15 8 17 8 3 173 271 252 406 23 40 39 80 36 88 -4 9 14 40
45 77 187 227 200 247 260 371 64 135 77 146 116 104 11 -13 26 -38 33 -56 7
-18 30 -48 51 -66 25 -21 39 -42 39 -56 0 -21 -43 -107 -60 -120 -14 -11 -161
-262 -193 -331 -78 -166 -89 -201 -94 -290 -3 -53 -1 -100 7 -122 15 -48 62
-87 105 -87 99 0 392 282 559 539 55 85 113 205 147 306 24 73 31 204 14 273
-7 31 -6 32 23 32 37 0 82 -48 106 -111 39 -105 32 -308 -13 -397 -12 -23 -17
-42 -12 -42 12 0 66 137 85 218 20 80 21 251 2 313 -30 97 -79 155 -152 179
-65 22 -179 8 -265 -33 -41 -19 -85 -44 -98 -56 -13 -11 -27 -21 -30 -21 -3 0
-17 -10 -31 -23 -14 -12 -50 -43 -81 -69 l-56 -48 7 46 c9 60 -2 120 -29 148
-45 48 -169 94 -184 69z m668 -173 c47 -80 11 -277 -86 -473 -34 -70 -127
-220 -169 -271 -128 -159 -237 -269 -333 -335 -66 -45 -105 -50 -143 -18 -27
23 -29 31 -32 107 -3 64 0 96 18 148 32 98 172 381 193 390 4 2 7 8 7 12 0 11
102 161 147 216 18 22 29 44 25 48 -4 4 -2 6 3 5 6 -2 44 31 85 73 99 100 160
138 220 135 39 -2 46 -6 65 -37z"/>
<path d="M9735 3143 c-8 -58 -32 -149 -48 -183 -13 -29 -351 -483 -373 -501
-8 -6 -14 -17 -14 -24 0 -7 -9 -24 -20 -37 -10 -12 -47 -59 -82 -103 -83 -106
-226 -254 -297 -307 -79 -59 -78 -58 -49 -58 65 0 210 129 399 355 64 77 159
189 210 250 51 60 100 118 108 128 9 11 36 42 61 70 60 67 107 137 141 213 32
70 40 78 72 70 52 -13 73 -111 41 -197 -28 -78 -33 -99 -23 -99 16 0 97 180
108 241 12 71 0 121 -39 161 -38 37 -105 68 -152 68 -36 0 -37 -1 -43 -47z"/>
<path d="M8250 3164 c-97 -26 -196 -98 -266 -194 l-33 -45 -78 0 c-68 0 -82
-3 -111 -25 -54 -40 -127 -145 -193 -275 -48 -96 -83 -148 -172 -255 -211
-253 -377 -409 -441 -411 -20 0 -20 -1 3 -10 16 -6 35 -6 58 2 40 13 150 100
243 190 88 87 256 296 315 394 123 203 190 268 291 281 69 10 121 36 203 105
39 33 90 69 114 79 46 21 123 27 111 9 -5 -8 -1 -8 14 0 40 21 112 32 151 21
108 -29 91 -201 -45 -477 -52 -105 -57 -111 -91 -118 -19 -3 -54 -3 -77 1
-104 17 -161 77 -175 185 -7 55 -9 58 -11 24 -4 -75 1 -110 23 -155 42 -86
140 -133 229 -110 46 13 87 53 154 153 25 37 52 67 60 67 8 0 12 -4 9 -10 -3
-5 -2 -10 3 -10 11 0 63 125 88 209 48 162 -3 319 -120 372 -51 23 -176 24
-256 3z"/>
<path d="M11709 2883 c-13 -15 -54 -71 -90 -123 -246 -353 -501 -630 -662
-719 -62 -34 -62 -25 1 47 76 85 175 223 166 231 -4 3 -9 1 -11 -6 -10 -28
-112 -164 -176 -235 -38 -43 -63 -78 -55 -78 15 0 114 46 136 64 8 5 35 10 60
11 26 0 56 5 67 9 11 5 -25 -25 -80 -65 -104 -77 -116 -84 -202 -132 -29 -16
-53 -31 -53 -34 0 -6 133 65 185 100 75 50 90 61 175 133 104 87 163 151 154
166 -4 6 -3 8 3 5 9 -6 50 33 118 114 54 64 159 208 243 333 75 112 92 146 90
170 -4 42 -36 46 -69 9z"/>
<path d="M6877 2694 c-3 -17 0 -32 6 -36 9 -6 9 -8 1 -8 -11 0 -28 -36 -25
-53 1 -5 -3 -6 -9 -2 -6 3 -8 10 -5 15 3 5 -4 15 -15 23 -11 7 -17 16 -14 20
3 3 -4 10 -15 17 -34 17 -26 -12 14 -56 19 -22 35 -45 35 -53 0 -8 -32 -73
-71 -143 -73 -132 -129 -257 -129 -287 0 -9 20 20 44 64 23 44 74 132 113 196
95 155 122 248 89 308 l-13 24 -6 -29z"/>
<path d="M6155 2371 c-49 -29 -113 -109 -135 -167 -28 -76 -25 -98 6 -44 44
78 105 130 152 130 11 0 22 7 26 15 3 8 12 15 21 15 11 0 15 -11 15 -44 0 -45
13 -68 23 -42 3 7 9 34 12 60 13 86 -45 123 -120 77z"/>
<path d="M8094 2095 c-137 -138 -269 -198 -359 -161 -38 16 -38 16 -20 -4 30
-33 87 -45 138 -30 115 34 232 117 319 225 19 24 33 66 21 64 -4 -1 -49 -43
-99 -94z"/>
<path d="M5846 1830 c-233 -188 -445 -298 -617 -320 l-74 -9 80 4 c87 4 145
21 270 81 169 79 402 244 436 307 5 9 8 17 7 17 -2 0 -48 -36 -102 -80z"/>
<path d="M4030 1428 c-53 -17 -95 -21 -232 -22 l-167 -1 22 -23 c83 -89 301
-238 472 -323 114 -56 123 -59 172 -53 51 6 53 5 70 -25 20 -35 54 -48 247
-96 174 -42 356 -66 551 -72 l180 -6 75 60 c100 80 252 244 239 257 -2 2 -47
0 -99 -6 -130 -13 -511 -4 -635 16 -179 29 -337 73 -480 133 -98 41 -136 61
-246 129 -47 30 -90 53 -95 53 -5 -1 -38 -10 -74 -21z"/>
<path d="M6495 1315 c-158 -53 -378 -110 -549 -142 l-99 -18 -58 -86 c-32 -48
-82 -115 -111 -150 -95 -114 -94 -103 -3 -95 229 21 537 81 775 152 177 53
217 71 253 113 52 63 39 140 -32 186 -48 32 -139 53 -176 40z"/>
<path d="M5459 184 c-10 -12 53 -14 472 -14 386 0 481 3 471 13 -10 9 -120 12
-472 14 -388 1 -460 -1 -471 -13z"/>
</g>
</svg>
